<svg width="20" height="19" viewBox="0 0 21 19" fill="none" xmlns="http://www.w3.org/2000/svg">
<path d="M20.7066 6.88032C20.7057 7.10382 20.6348 7.32142 20.5038 7.50256C20.3729 7.6837 20.1885 7.8193 19.9766 7.89032L18.0966 8.51032C17.5064 8.70769 16.9703 9.04006 16.5311 9.48101C16.0919 9.92196 15.7617 10.4593 15.5666 11.0503L14.9166 12.9203C14.8425 13.1293 14.7065 13.3107 14.5266 13.4403C14.3907 13.5383 14.2334 13.6026 14.0678 13.6279C13.9021 13.6533 13.7328 13.6391 13.5738 13.5864C13.4147 13.5337 13.2704 13.4441 13.1527 13.3248C13.035 13.2055 12.9472 13.0601 12.8966 12.9003L12.2666 11.0203C12.0624 10.4281 11.7195 9.89321 11.2666 9.46032C10.8278 9.00995 10.2903 8.66763 9.69662 8.46032L7.81662 7.83032C7.60374 7.76331 7.41774 7.6302 7.28562 7.45032C7.15602 7.26768 7.08641 7.04927 7.08641 6.82532C7.08641 6.60137 7.15602 6.38296 7.28562 6.20032C7.41853 6.01516 7.60807 5.87827 7.82562 5.81032L9.69562 5.18032C10.2975 4.97788 10.8425 4.6351 11.2856 4.18032C11.7356 3.73732 12.0786 3.19632 12.2856 2.60032L12.9056 0.75032C12.9642 0.538952 13.0907 0.352723 13.2656 0.22032C13.4416 0.0791593 13.6601 0.00162826 13.8856 0.00031986C14.109 -0.00506787 14.3288 0.0577181 14.5156 0.18032C14.7056 0.299528 14.85 0.47915 14.9256 0.69032L15.5556 2.60032C15.7626 3.19632 16.1056 3.73732 16.5556 4.18032C16.9959 4.6338 17.5373 4.9765 18.1356 5.18032L20.0056 5.84032C20.2161 5.90618 20.3989 6.03977 20.5256 6.22032C20.6556 6.41432 20.7206 6.64532 20.7066 6.88032ZM10.8366 13.8103C10.8361 14.0142 10.7733 14.2131 10.6566 14.3803C10.5358 14.5429 10.3684 14.665 10.1766 14.7303L8.82662 15.1803C8.44887 15.3146 8.10682 15.5336 7.82662 15.8203C7.54202 16.1023 7.32345 16.4438 7.18662 16.8203L6.71663 18.1603C6.65127 18.3521 6.52922 18.5195 6.36662 18.6403C6.19824 18.7587 5.99744 18.8222 5.79163 18.8222C5.58581 18.8222 5.38501 18.7587 5.21663 18.6403C5.05403 18.5195 4.93198 18.3521 4.86662 18.1603L4.42663 16.8203C4.29075 16.4431 4.07167 16.1013 3.78562 15.8203C3.50369 15.5357 3.16217 15.3171 2.78562 15.1803L1.43562 14.7403C1.24255 14.6723 1.075 14.5466 0.955625 14.3803C0.83536 14.2143 0.769032 14.0153 0.765625 13.8103C0.769228 13.6041 0.836506 13.404 0.95824 13.2376C1.07997 13.0711 1.25021 12.9463 1.44563 12.8803L2.78562 12.4403C3.16094 12.3011 3.50177 12.0826 3.78482 11.7995C4.06787 11.5165 4.28645 11.1756 4.42563 10.8003L4.87562 9.48032C4.93556 9.29112 5.05043 9.12403 5.20562 9.00032C5.36787 8.87672 5.56403 8.80569 5.76779 8.79676C5.97156 8.78782 6.17318 8.8414 6.34562 8.95032C6.51662 9.06832 6.64862 9.23532 6.72563 9.43032L7.17562 10.8003C7.3148 11.1756 7.53338 11.5165 7.81643 11.7995C8.09948 12.0826 8.44031 12.3011 8.81563 12.4403L10.1556 12.9103C10.3473 12.9706 10.513 13.0939 10.6256 13.2603C10.7527 13.4164 10.8263 13.6092 10.8356 13.8103"
 fill="white"/>
</svg>
