<svg width="1689" height="537" viewBox="0 0 1689 537" fill="none" xmlns="http://www.w3.org/2000/svg">
<path d="M489.061 345.313C476.796 383.052 455.686 415.837 427.146 443.316L427.028 443.198C413.702 432.466 399.432 422.796 384.336 414.776L382.921 414.422C390.469 392.84 396.247 368.9 400.139 345.313H373.958C370.302 365.362 365.113 386.236 358.273 406.403L359.216 403.218C331.501 391.897 302.961 385.41 272.299 383.995V345.313H246.353V383.641C215.69 385.057 186.089 391.543 158.138 402.865H158.02L157.902 403.218C151.652 385.057 146.581 365.244 143.043 345.195H116.979C120.753 368.782 126.414 391.661 134.08 414.304C117.569 423.031 103.299 432.348 90.0903 442.962L89.9724 443.316C61.1965 415.837 40.0863 383.052 27.8211 345.313H0.932129C15.2022 393.666 42.7987 435.886 79.3583 468.672H79.5942C80.3018 469.497 81.1273 470.087 81.9529 470.677C130.778 513.487 193.401 536.956 258.264 536.838C323.482 536.956 386.341 513.133 435.284 470.087C464.059 445.085 487.057 414.54 502.86 379.867C508.049 368.546 512.412 355.927 515.95 345.313H489.061ZM133.962 414.068L134.905 417.135C134.551 416.191 134.198 415.13 133.962 414.068ZM181.607 498.273C155.662 489.546 131.249 476.691 109.667 459.827C119.574 452.043 130.66 444.731 142.453 438.363L143.75 437.773C152.831 459.945 165.804 480.465 181.607 498.273C181.725 498.391 181.843 498.627 181.961 498.627C181.961 498.627 182.079 498.745 182.079 498.863L181.961 498.745C181.843 498.627 181.725 498.391 181.607 498.273ZM246.353 509.831C215.69 502.991 187.15 472.092 167.337 426.805C190.452 417.135 217.459 410.884 245.527 409.351H246.353V509.831ZM272.299 509.831V409.233C301.782 410.766 326.312 416.899 350.607 426.805L352.022 427.395C351.55 427.159 351.079 427.041 350.725 426.805C330.912 471.974 302.961 503.109 272.299 509.831ZM336.809 498.273L335.04 498.745C350.725 481.055 363.58 461.006 372.896 439.306L373.604 437.891C386.577 444.849 397.191 452.043 407.451 460.063C386.341 476.691 362.4 489.546 336.809 498.273ZM437.406 68.9932L437.17 68.4035C436.463 67.6959 435.755 66.8704 434.93 66.2807V66.1628C386.105 23.4706 323.364 -0.234125 258.382 0.00174346C190.57 0.00174346 128.655 25.2396 81.4811 66.7525C81.0094 67.1063 80.5377 67.4601 80.1839 67.9318C51.7617 93.0518 29.1184 124.658 13.5511 159.213C9.89512 167.468 6.59297 176.785 3.76255 185.04H30.8874C43.3884 149.66 63.4372 119.941 89.8545 94.5849L89.9724 94.2311C102.827 104.727 117.333 114.162 132.665 122.299L134.08 123.597C127.475 142.702 122.168 162.751 118.277 185.158H144.694C148.232 165.109 152.949 148.717 158.846 131.616L158.02 134.211C185.853 145.65 215.69 151.901 245.645 153.316L246.589 153.198V184.922H272.534V152.962C302.018 151.547 331.855 145.061 359.924 133.739H359.688L361.339 133.031C360.749 133.267 360.159 134.093 359.57 134.329C364.995 150.014 369.358 167.114 372.778 184.804H399.078C395.304 162.397 390.115 143.056 383.392 123.125L383.275 122.889L382.331 119.705C382.685 120.766 383.039 121.592 383.392 122.653C398.96 114.516 413.702 105.435 427.5 94.349C453.917 119.705 473.966 149.542 486.467 184.922H513.71C498.378 138.928 471.961 99.774 437.406 68.9932ZM143.986 97.2974L143.397 98.7126C131.485 92.3441 120.046 84.9143 109.432 76.541C130.66 59.9123 154.482 46.9395 180.074 38.2124L181.725 37.7407C166.158 55.5487 153.421 75.5975 143.986 97.2974ZM246.353 127.371C218.049 125.955 191.278 119.823 165.686 109.209L167.101 109.798C187.032 64.6296 215.101 33.613 245.999 26.7728L246.353 26.8907V127.371ZM272.652 127.371H272.299V26.8907C302.961 33.7309 330.676 64.6296 350.489 109.916C327.374 119.587 300.721 125.837 272.652 127.371ZM374.783 98.2409L373.486 98.8305C364.051 76.6589 351.668 56.2563 335.747 38.0945C335.629 37.9765 335.393 37.9765 335.275 37.9765C335.157 37.8586 335.511 37.7407 335.393 37.6227L335.983 37.8586V37.9765H335.629C335.629 38.0945 335.747 38.0945 335.747 38.0945C361.693 46.8216 385.869 59.9123 407.451 76.6589C397.545 84.5605 386.459 91.8724 374.783 98.2409Z" fill="white"/>
<path d="M147.288 233.629H176.772V263.113H147.288V233.629ZM176.772 292.596V263.113H206.255V292.596H176.772ZM353.791 233.629V263.113H383.275V292.596H353.791V263.113H324.307V233.629H353.791ZM471.725 204.146H88.2034V233.629H58.7199V263.113H29.2363V322.08H58.7199V263.113H117.687V292.596H147.17V322.08H235.621V292.596H265.105V263.113H294.588V292.596H324.072V322.08H412.522V292.596H442.006V263.113H471.489V204.146H471.725Z" fill="white"/>
<path d="M499.557 162.161H17.9143V184.097H499.557V162.161Z" fill="white"/>
<path d="M499.557 345.549H17.9143V367.484H499.557V345.549Z" fill="white"/>
<path d="M1534.71 324.452H1546.65H1571.76H1664.06V354.172H1571.76V369.789H1652.27V395.112H1571.76V411.488H1664.06V441.359H1571.76H1534.71V324.452Z" fill="white"/>
<path d="M1325.77 324.452H1363.09H1379.23L1426.74 391.321L1474.26 324.452H1489.94H1527.25V441.359H1489.94V366.908L1436.94 441.359H1416.54L1363.09 366.15V441.359H1325.77V324.452Z" fill="white"/>
<path d="M1186.48 324.452H1198.42H1223.52H1315.82V354.172H1223.52V369.789H1304.04V395.112H1223.52V411.488H1315.82V441.359H1223.52H1186.48V324.452Z" fill="white"/>
<path d="M977.543 324.452H1014.85H1031L1078.51 391.321L1126.02 324.452H1141.71H1179.02V441.359H1141.71V366.908L1088.71 441.359H1068.31L1014.85 366.15V441.359H977.543V324.452Z" fill="white"/>
<path d="M778.553 324.452H790.492H815.596H907.896V354.284H815.596V373.214H896.11V399.563H815.596V441.359H778.553V324.452Z" fill="white"/>
<path d="M684.549 324.452C692.202 324.452 696.029 324.452 696.029 324.452C709.421 324.452 721.756 325.261 733.033 326.878C742.398 328.191 750.101 331.83 756.143 337.792C762.184 343.654 765.809 351.132 767.017 360.227C769.132 375.386 769.132 390.495 767.017 405.553C765.809 414.648 762.184 422.177 756.143 428.14C750.101 434.001 742.398 437.589 733.033 438.903C720.145 440.722 705.896 441.53 690.289 441.328C674.681 441.53 660.433 440.722 647.545 438.903C638.18 437.589 630.477 434.001 624.435 428.14C618.394 422.177 614.718 414.648 613.409 405.553C611.396 390.495 611.396 375.386 613.409 360.227C614.718 351.132 618.394 343.654 624.435 337.792C630.477 331.83 638.18 328.191 647.545 326.878C658.822 325.261 671.157 324.452 684.549 324.452ZM687.117 354.922C679.666 354.922 672.819 355.326 666.576 356.135C661.44 356.741 657.161 358.459 653.737 361.289C650.414 364.118 648.451 367.706 647.847 372.051C646.638 379.328 646.638 386.554 647.847 393.729C648.451 398.176 650.414 401.814 653.737 404.643C657.161 407.372 661.44 409.09 666.576 409.797C673.725 410.606 681.629 410.96 690.289 410.859C698.949 410.96 706.853 410.606 714.002 409.797C719.138 409.09 723.367 407.372 726.69 404.643C730.013 401.814 732.027 398.176 732.731 393.729C733.94 386.554 733.94 379.328 732.731 372.051C732.027 367.706 730.013 364.118 726.69 361.289C723.367 358.459 719.138 356.741 714.002 356.135C707.659 355.326 700.811 354.922 693.461 354.922C693.36 354.922 692.303 354.922 690.289 354.922C688.275 354.922 687.218 354.922 687.117 354.922Z" fill="white"/>
<path d="M1481.12 93.1267H1636.33C1650.66 93.1267 1662.86 98.2341 1672.94 108.449C1683.03 118.664 1688.07 130.935 1688.07 145.262V197.994C1688.07 211.393 1683.29 222.868 1673.74 232.419C1664.32 241.971 1652.91 246.747 1639.51 246.747H1481.12V93.1267ZM1526.89 130.537V209.337C1526.89 209.337 1556.34 209.337 1615.24 209.337C1622.67 209.337 1629.03 206.882 1634.34 201.974C1639.65 197.066 1642.3 191.162 1642.3 184.264V182.473V182.075V181.876V181.478V181.08V180.682V180.284V180.085V179.687V179.289V178.891V178.692V178.294V177.896V177.697V177.299V176.901V176.503V176.304V175.906V175.508V175.309V174.911V174.712V174.314V173.917V173.718V173.32V173.121V172.723V172.325V172.126V171.728V171.529V171.131V170.932V170.534V170.335V169.937V169.738V169.34V169.141V168.942V168.544V168.345V167.947V167.748V167.549V167.151V166.952V166.753V166.355V166.156V165.957V165.559V165.36V165.161V164.962V164.564V164.365V164.166V163.967V163.768V163.569V163.171V162.972V162.773V162.574V162.375V162.176V161.977V161.778V161.579V161.38V161.181V160.982V160.783V160.584V160.385V160.186V159.987V159.788V159.589V159.39V159.191V158.992V158.793V158.594V158.395V158.196V157.997V157.798V157.599V157.4V157.201C1642.3 149.905 1639.45 143.67 1633.74 138.496C1628.17 133.19 1621.41 130.537 1613.45 130.537H1526.89Z" fill="white"/>
<path d="M1324.69 93.3257H1373.44V206.949H1469.35V246.747H1373.44H1324.69V206.949V93.3257Z" fill="white"/>
<path d="M1129.39 93.5248H1176.35H1176.55H1275.85C1286.06 93.5248 1294.75 97.1729 1301.91 104.469C1309.21 111.633 1312.86 120.388 1312.86 130.736V170.335C1312.86 179.356 1310.01 187.315 1304.3 194.214C1298.73 200.979 1291.7 205.224 1283.21 206.949L1312.86 246.946H1258.53L1225.9 207.745H1176.55V246.946H1129.39V93.5248ZM1176.55 132.726V168.345H1254.75C1257.94 168.345 1260.66 167.217 1262.91 164.962C1265.17 162.707 1266.29 159.987 1266.29 156.803V144.466C1266.29 141.282 1265.17 138.563 1262.91 136.308C1260.66 133.92 1257.94 132.726 1254.75 132.726H1176.55Z" fill="white"/>
<path d="M1006.87 93.5248C1016.96 93.5248 1022 93.5248 1022 93.5248C1039.64 93.5248 1055.89 94.5861 1070.75 96.7086C1083.09 98.4332 1093.24 103.209 1101.2 111.036C1109.16 118.73 1113.93 128.547 1115.52 140.486C1118.31 160.385 1118.31 180.218 1115.52 199.984C1113.93 211.924 1109.16 221.807 1101.2 229.634C1093.24 237.328 1083.09 242.037 1070.75 243.762C1053.77 246.15 1035 247.211 1014.44 246.946C993.874 247.211 975.103 246.15 958.122 243.762C945.785 242.037 935.637 237.328 927.677 229.634C919.717 221.807 914.875 211.924 913.151 199.984C910.498 180.218 910.498 160.385 913.151 140.486C914.875 128.547 919.717 118.73 927.677 111.036C935.637 103.209 945.785 98.4332 958.122 96.7086C972.98 94.5861 989.231 93.5248 1006.87 93.5248ZM1010.26 133.522C1000.44 133.522 991.42 134.052 983.195 135.114C976.43 135.91 970.791 138.165 966.281 141.879C961.903 145.594 959.316 150.303 958.52 156.008C956.929 165.559 956.929 175.044 958.52 184.463C959.316 190.3 961.903 195.076 966.281 198.79C970.791 202.372 976.43 204.627 983.195 205.556C992.614 206.617 1003.03 207.082 1014.44 206.949C1025.85 207.082 1036.26 206.617 1045.68 205.556C1052.44 204.627 1058.02 202.372 1062.39 198.79C1066.77 195.076 1069.42 190.3 1070.35 184.463C1071.94 175.044 1071.94 165.559 1070.35 156.008C1069.42 150.303 1066.77 145.594 1062.39 141.879C1058.02 138.165 1052.44 135.91 1045.68 135.114C1037.32 134.052 1028.3 133.522 1018.62 133.522C1018.48 133.522 1017.09 133.522 1014.44 133.522C1011.78 133.522 1010.39 133.522 1010.26 133.522Z" fill="white"/>
<path d="M611.899 93.3257H650.702L688.709 207.944L732.487 93.3257H740.048H771.29H778.851L822.629 207.944L860.636 93.3257H899.439L852.279 246.747H848.697H800.939H797.357L755.57 135.113L713.782 246.747H710.399H662.641H659.06L611.899 93.3257Z" fill="white"/>
</svg>
