<svg width="479" height="55" viewBox="0 0 479 55" fill="none" xmlns="http://www.w3.org/2000/svg">
<path d="M92.6562 41.7253V8.18945H99.3713V41.7253H92.6562Z" fill="#F7A600"/>
<path d="M14.3957 51.6867H0V18.1509H13.8168C20.5319 18.1509 24.4446 21.8247 24.4446 27.5713C24.4446 31.2912 21.9317 33.6951 20.1924 34.4955C22.2686 35.437 24.9261 37.5561 24.9261 42.0328C24.9261 48.2952 20.5319 51.6867 14.3957 51.6867ZM13.2853 23.9925H6.71502V31.717H13.2853C16.1351 31.717 17.7296 30.1624 17.7296 27.8535C17.7296 25.5471 16.1351 23.9925 13.2853 23.9925ZM13.7195 37.6048H6.71502V45.8476H13.7195C16.7639 45.8476 18.2111 43.9647 18.2111 41.7019C18.2111 39.4417 16.7612 37.6048 13.7195 37.6048Z" fill="white"/>
<path d="M45.4083 37.9332V51.6867H38.7406V37.9332L28.4023 18.1509H35.6962L42.1218 31.6683L48.4501 18.1509H55.744L45.4083 37.9332Z" fill="white"/>
<path d="M74.7805 51.6867H60.3848V18.1509H74.2017C80.9167 18.1509 84.8294 21.8247 84.8294 27.5713C84.8294 31.2912 82.3165 33.6951 80.5772 34.4955C82.6533 35.437 85.311 37.5561 85.311 42.0328C85.311 48.2952 80.9167 51.6867 74.7805 51.6867ZM73.6702 23.9925H67.0998V31.717H73.6702C76.5199 31.717 78.1144 30.1624 78.1144 27.8535C78.1144 25.5471 76.5199 23.9925 73.6702 23.9925ZM74.1043 37.6048H67.0998V45.8476H74.1043C77.1486 45.8476 78.5958 43.9647 78.5958 41.7019C78.5958 39.4417 77.1486 37.6048 74.1043 37.6048Z" fill="white"/>
<path d="M121.013 23.9925V51.6892H114.298V23.9925H105.312V18.1509H129.999V23.9925H121.013Z" fill="white"/>
<path d="M204.131 11.5996H162.957C162.703 11.5996 162.46 11.7004 162.28 11.8801C162.101 12.0596 162 12.3031 162 12.5572V53.731C162 53.9849 162.101 54.2284 162.28 54.4079C162.46 54.5876 162.703 54.6884 162.957 54.6884H204.131C204.385 54.6884 204.629 54.5876 204.808 54.4079C204.988 54.2284 205.089 53.9849 205.089 53.731V12.5572C205.089 12.3031 204.988 12.0596 204.808 11.8801C204.629 11.7004 204.385 11.5996 204.131 11.5996ZM190.726 39.368C190.726 39.6219 190.625 39.8654 190.445 40.0451C190.266 40.2246 190.022 40.3256 189.768 40.3256H177.32C177.066 40.3256 176.823 40.2246 176.643 40.0451C176.464 39.8654 176.363 39.6219 176.363 39.368V26.92C176.363 26.6661 176.464 26.4225 176.643 26.2431C176.823 26.0634 177.066 25.9626 177.32 25.9626H189.768C190.022 25.9626 190.266 26.0634 190.445 26.2431C190.625 26.4225 190.726 26.6661 190.726 26.92V39.368Z" fill="white"/>
<path d="M290.333 25.9639H277.885C277.357 25.9639 276.928 26.3925 276.928 26.9213V39.3693C276.928 39.8981 277.357 40.3269 277.885 40.3269H290.333C290.862 40.3269 291.291 39.8981 291.291 39.3693V26.9213C291.291 26.3925 290.862 25.9639 290.333 25.9639Z" fill="white"/>
<path d="M275.964 11.6006H263.516C262.987 11.6006 262.559 12.0292 262.559 12.5582V25.006C262.559 25.5348 262.987 25.9636 263.516 25.9636H275.964C276.493 25.9636 276.922 25.5348 276.922 25.006V12.5582C276.922 12.0292 276.493 11.6006 275.964 11.6006Z" fill="white"/>
<path d="M304.691 11.6006H292.243C291.714 11.6006 291.285 12.0292 291.285 12.5582V25.006C291.285 25.5348 291.714 25.9636 292.243 25.9636H304.691C305.22 25.9636 305.648 25.5348 305.648 25.006V12.5582C305.648 12.0292 305.22 11.6006 304.691 11.6006Z" fill="white"/>
<path d="M275.964 40.3262H263.516C262.987 40.3262 262.559 40.7548 262.559 41.2836V53.7316C262.559 54.2604 262.987 54.6892 263.516 54.6892H275.964C276.493 54.6892 276.922 54.2604 276.922 53.7316V41.2836C276.922 40.7548 276.493 40.3262 275.964 40.3262Z" fill="white"/>
<path d="M304.691 40.3262H292.243C291.714 40.3262 291.285 40.7548 291.285 41.2836V53.7316C291.285 54.2604 291.714 54.6892 292.243 54.6892H304.691C305.22 54.6892 305.648 54.2604 305.648 53.7316V41.2836C305.648 40.7548 305.22 40.3262 304.691 40.3262Z" fill="white"/>
<path d="M254.401 11.6006H241.954C241.425 11.6006 240.996 12.0292 240.996 12.5582V25.006C240.996 25.5348 241.425 25.9636 241.954 25.9636H254.401C254.93 25.9636 255.359 25.5348 255.359 25.006V12.5582C255.359 12.0292 254.93 11.6006 254.401 11.6006Z" fill="white"/>
<path d="M254.401 40.3262H241.954C241.425 40.3262 240.996 40.7548 240.996 41.2836V53.7316C240.996 54.2604 241.425 54.6892 241.954 54.6892H254.401C254.93 54.6892 255.359 54.2604 255.359 53.7316V41.2836C255.359 40.7548 254.93 40.3262 254.401 40.3262Z" fill="white"/>
<path d="M240.996 26.9092C240.996 26.6553 240.895 26.4118 240.715 26.2323C240.535 26.0526 240.292 25.9518 240.038 25.9518H226.633V12.5572C226.633 12.3031 226.532 12.0596 226.352 11.8801C226.172 11.7004 225.929 11.5996 225.675 11.5996H213.227C212.973 11.5996 212.729 11.7004 212.55 11.8801C212.37 12.0596 212.27 12.3031 212.27 12.5572V53.7094C212.27 53.9634 212.37 54.2069 212.55 54.3864C212.729 54.566 212.973 54.6668 213.227 54.6668H225.675C225.929 54.6668 226.172 54.566 226.352 54.3864C226.532 54.2069 226.633 53.9634 226.633 53.7094V40.3148H240.038C240.292 40.3148 240.535 40.2138 240.715 40.0343C240.895 39.8547 240.996 39.6111 240.996 39.3572V26.9092Z" fill="white"/>
<path d="M360.997 17.0368C361.159 9.04405 356.633 2.07956 354.274 0.405115C354.263 0.394117 354.054 0.281388 354.071 0.594831C354.071 0.60033 354.065 0.600328 354.065 0.605827C353.823 15.7033 346.061 19.7726 341.849 25.3073C332.484 37.6114 340.299 51.6503 350.422 54.3091C350.595 54.3531 351.063 54.4933 351.951 54.6748C352.413 54.771 352.548 54.3778 352.209 53.7922C351 51.6888 348.847 48.1337 348.421 43.5695C347.45 32.9702 360.807 26.3384 360.997 17.0368Z" fill="white"/>
<path d="M366.099 22.1565C366.02 22.096 365.907 22.1015 365.896 22.206C365.681 24.1279 363.694 28.112 361.079 31.8348C352.275 44.3917 356.71 50.0887 360.152 54.0397C360.787 54.7711 361.104 54.6116 361.439 54.0892C361.752 53.5943 362.225 52.9647 364.26 51.9996C364.576 51.8484 372.264 47.7681 373.097 38.4776C373.897 29.4867 368.134 23.8035 366.099 22.1565Z" fill="#008CD6"/>
<path d="M411.82 19.8691V52.9126H404.732V39.5638H391.111V52.9126H383.844V19.8691H391.111V33.218H404.732V19.8691H411.82Z" fill="white"/>
<path d="M444.593 19.8691V26.4047H441.219H434.417V52.9099H427.125V26.4047H420.504H417.131V19.8691H444.593Z" fill="white"/>
<path fill-rule="evenodd" clip-rule="evenodd" d="M470.405 52.9456L462.074 41.4472L453.806 52.8961L445.723 52.9071L457.977 36.039L446.41 19.8691H454.488L478.45 52.9456H470.405Z" fill="white"/>
<path d="M464.34 27.262L468.338 32.816L477.81 19.8604H469.776L464.34 27.262Z" fill="#008CD6"/>
</svg>
