<svg xmlns="http://www.w3.org/2000/svg" fill="none" viewBox="1395.8302435897435 627.9161958000001 1119.1132478632478 1984.9500000000003" style="max-height: 500px" width="1119.1132478632478" height="1984.9500000000003">
<g filter="url(#filter0_f_645_611)" opacity="0.4">
<ellipse fill="url(#paint0_radial_645_611)" transform="matrix(-0.691052 0.722805 0.759473 0.650539 1501.77 302.136)" ry="992.775" rx="904.287" cy="992.775" cx="904.287"/>
</g>
<g filter="url(#filter1_f_645_611)" opacity="0.4">
<ellipse fill="url(#paint1_radial_645_611)" transform="matrix(-0.779449 0.626466 0.661178 0.750229 1408.6 419.227)" ry="1148.57" rx="650.162" cy="1148.57" cx="650.162"/>
</g>
<g clip-path="url(#clip0_645_611)">
<path fill="black" d="M2194 3189C2195.56 3189 2197.05 3189.6 2198.17 3190.68C2199.28 3191.76 2199.94 3193.22 2200 3194.78L2200 3195H2201C2201.51 3195 2201.99 3195.19 2202.36 3195.53C2202.73 3195.88 2202.96 3196.35 2203 3196.85L2203 3197V3207C2203 3207.5 2202.81 3207.99 2202.47 3208.36C2202.13 3208.73 2201.66 3208.96 2201.15 3209L2201 3209H2187C2186.5 3209 2186.01 3208.81 2185.64 3208.47C2185.27 3208.12 2185.05 3207.65 2185.01 3207.15L2185 3207V3197C2185 3196.5 2185.19 3196.01 2185.54 3195.64C2185.88 3195.27 2186.35 3195.04 2186.85 3195.01L2187 3195H2188C2188 3193.41 2188.64 3191.88 2189.76 3190.76C2190.89 3189.63 2192.41 3189 2194 3189ZM2201 3197H2187V3207H2201V3197ZM2194 3199C2194.43 3199 2194.85 3199.14 2195.19 3199.39C2195.53 3199.64 2195.79 3200 2195.91 3200.41C2196.04 3200.81 2196.03 3201.25 2195.89 3201.65C2195.75 3202.06 2195.49 3202.4 2195.14 3202.65L2195 3202.73V3204C2195 3204.25 2194.91 3204.5 2194.73 3204.69C2194.56 3204.87 2194.32 3204.98 2194.06 3205C2193.81 3205.01 2193.56 3204.93 2193.36 3204.77C2193.17 3204.6 2193.04 3204.37 2193.01 3204.12L2193 3204V3202.73C2192.62 3202.51 2192.32 3202.17 2192.16 3201.77C2191.99 3201.36 2191.96 3200.91 2192.07 3200.48C2192.19 3200.06 2192.44 3199.68 2192.79 3199.41C2193.14 3199.15 2193.56 3199 2194 3199ZM2194 3191C2192.94 3191 2191.93 3191.42 2191.18 3192.17C2190.43 3192.92 2190 3193.94 2190 3195H2198C2198 3193.94 2197.58 3192.92 2196.83 3192.17C2196.08 3191.42 2195.06 3191 2194 3191Z"/>
</g>
<defs>
<filter color-interpolation-filters="sRGB" filterUnits="userSpaceOnUse" height="2230.41" width="2351.29" y="486.393" x="455.203" id="filter0_f_645_611">
<feFlood result="BackgroundImageFix" flood-opacity="0"/>
<feBlend result="shape" in2="BackgroundImageFix" in="SourceGraphic" mode="normal"/>
<feGaussianBlur result="effect1_foregroundBlur_645_611" stdDeviation="98.1652"/>
</filter>
<filter color-interpolation-filters="sRGB" filterUnits="userSpaceOnUse" height="2299.31" width="2218.8" y="538.563" x="551.845" id="filter1_f_645_611">
<feFlood result="BackgroundImageFix" flood-opacity="0"/>
<feBlend result="shape" in2="BackgroundImageFix" in="SourceGraphic" mode="normal"/>
<feGaussianBlur result="effect1_foregroundBlur_645_611" stdDeviation="98.1652"/>
</filter>
<radialGradient gradientTransform="translate(904.287 992.775) rotate(90) scale(992.775 904.287)" gradientUnits="userSpaceOnUse" r="1" cy="0" cx="0" id="paint0_radial_645_611">
<stop stop-color="#00A3FF"/>
<stop stop-opacity="0" offset="1"/>
</radialGradient>
<radialGradient gradientTransform="translate(650.162 1148.57) rotate(90) scale(1148.57 650.162)" gradientUnits="userSpaceOnUse" r="1" cy="0" cx="0" id="paint1_radial_645_611">
<stop stop-color="#DB00FF"/>
<stop stop-opacity="0" offset="1"/>
</radialGradient>
<clipPath id="clip0_645_611">
<rect transform="translate(2182 3187)" fill="white" height="24" width="24"/>
</clipPath>
</defs>
</svg>